<svg width="135" height="44" viewBox="0 0 135 44" fill="none" xmlns="http://www.w3.org/2000/svg">
<rect width="44" height="44" rx="16" fill="#40BFFF"/>
<path fill-rule="evenodd" clip-rule="evenodd" d="M31.0618 20.2715C32.0164 21.2261 32.0164 22.7738 31.0618 23.7284L23.7285 31.0618C22.7739 32.0164 21.2261 32.0164 20.2715 31.0618L12.9382 23.7284C11.9836 22.7738 11.9836 21.2261 12.9382 20.2715L20.2715 12.9381C21.2261 11.9835 22.7739 11.9835 23.7285 12.9381L31.0618 20.2715ZM22 18.1236L18.1236 21.9999L22 25.8763L25.8764 21.9999L22 18.1236Z" fill="white"/>
<path d="M54.5094 19.6078V22.1638H58.6314V24.5398H54.5094V27.3118H59.1714V29.7778H51.4314V17.1418H59.1714V19.6078H54.5094ZM68.9097 22.1818V24.7378H60.9897V22.1818H68.9097ZM71.0891 23.4418C71.0891 22.1938 71.3591 21.0838 71.8991 20.1118C72.4391 19.1278 73.1891 18.3658 74.1491 17.8258C75.1211 17.2738 76.2191 16.9978 77.4431 16.9978C78.9431 16.9978 80.2271 17.3938 81.2951 18.1858C82.3631 18.9778 83.0771 20.0578 83.4371 21.4258H80.0531C79.8011 20.8978 79.4411 20.4958 78.9731 20.2198C78.5171 19.9438 77.9951 19.8058 77.4071 19.8058C76.4591 19.8058 75.6911 20.1358 75.1031 20.7958C74.5151 21.4558 74.2211 22.3378 74.2211 23.4418C74.2211 24.5458 74.5151 25.4278 75.1031 26.0878C75.6911 26.7478 76.4591 27.0778 77.4071 27.0778C77.9951 27.0778 78.5171 26.9398 78.9731 26.6638C79.4411 26.3878 79.8011 25.9858 80.0531 25.4578H83.4371C83.0771 26.8258 82.3631 27.9058 81.2951 28.6978C80.2271 29.4778 78.9431 29.8678 77.4431 29.8678C76.2191 29.8678 75.1211 29.5978 74.1491 29.0578C73.1891 28.5058 72.4391 27.7438 71.8991 26.7718C71.3591 25.7998 71.0891 24.6898 71.0891 23.4418ZM89.8941 29.9218C88.9101 29.9218 88.0221 29.7118 87.2301 29.2918C86.4501 28.8718 85.8321 28.2718 85.3761 27.4918C84.9321 26.7118 84.7101 25.7998 84.7101 24.7558C84.7101 23.7238 84.9381 22.8178 85.3941 22.0378C85.8501 21.2458 86.4741 20.6398 87.2661 20.2198C88.0581 19.7998 88.9461 19.5898 89.9301 19.5898C90.9141 19.5898 91.8021 19.7998 92.5941 20.2198C93.3861 20.6398 94.0101 21.2458 94.4661 22.0378C94.9221 22.8178 95.1501 23.7238 95.1501 24.7558C95.1501 25.7878 94.9161 26.6998 94.4481 27.4918C93.9921 28.2718 93.3621 28.8718 92.5581 29.2918C91.7661 29.7118 90.8781 29.9218 89.8941 29.9218ZM89.8941 27.2578C90.4821 27.2578 90.9801 27.0418 91.3881 26.6098C91.8081 26.1778 92.0181 25.5598 92.0181 24.7558C92.0181 23.9518 91.8141 23.3338 91.4061 22.9018C91.0101 22.4698 90.5181 22.2538 89.9301 22.2538C89.3301 22.2538 88.8321 22.4698 88.4361 22.9018C88.0401 23.3218 87.8421 23.9398 87.8421 24.7558C87.8421 25.5598 88.0341 26.1778 88.4181 26.6098C88.8141 27.0418 89.3061 27.2578 89.8941 27.2578ZM109.599 19.6258C110.847 19.6258 111.837 20.0038 112.569 20.7598C113.313 21.5158 113.685 22.5658 113.685 23.9098V29.7778H110.625V24.3238C110.625 23.6758 110.451 23.1778 110.103 22.8298C109.767 22.4698 109.299 22.2898 108.699 22.2898C108.099 22.2898 107.625 22.4698 107.277 22.8298C106.941 23.1778 106.773 23.6758 106.773 24.3238V29.7778H103.713V24.3238C103.713 23.6758 103.539 23.1778 103.191 22.8298C102.855 22.4698 102.387 22.2898 101.787 22.2898C101.187 22.2898 100.713 22.4698 100.365 22.8298C100.029 23.1778 99.861 23.6758 99.861 24.3238V29.7778H96.783V19.7338H99.861V20.9938C100.173 20.5738 100.581 20.2438 101.085 20.0038C101.589 19.7518 102.159 19.6258 102.795 19.6258C103.551 19.6258 104.223 19.7878 104.811 20.1118C105.411 20.4358 105.879 20.8978 106.215 21.4978C106.563 20.9458 107.037 20.4958 107.637 20.1478C108.237 19.7998 108.891 19.6258 109.599 19.6258ZM128.654 19.6258C129.902 19.6258 130.892 20.0038 131.624 20.7598C132.368 21.5158 132.74 22.5658 132.74 23.9098V29.7778H129.68V24.3238C129.68 23.6758 129.506 23.1778 129.158 22.8298C128.822 22.4698 128.354 22.2898 127.754 22.2898C127.154 22.2898 126.68 22.4698 126.332 22.8298C125.996 23.1778 125.828 23.6758 125.828 24.3238V29.7778H122.768V24.3238C122.768 23.6758 122.594 23.1778 122.246 22.8298C121.91 22.4698 121.442 22.2898 120.842 22.2898C120.242 22.2898 119.768 22.4698 119.42 22.8298C119.084 23.1778 118.916 23.6758 118.916 24.3238V29.7778H115.838V19.7338H118.916V20.9938C119.228 20.5738 119.636 20.2438 120.14 20.0038C120.644 19.7518 121.214 19.6258 121.85 19.6258C122.606 19.6258 123.278 19.7878 123.866 20.1118C124.466 20.4358 124.934 20.8978 125.27 21.4978C125.618 20.9458 126.092 20.4958 126.692 20.1478C127.292 19.7998 127.946 19.6258 128.654 19.6258Z" fill="#22262A"/>
</svg>
